<?xml version="1.0" encoding="utf-8"?>
<!-- Generator: Adobe Illustrator 23.1.1, SVG Export Plug-In . SVG Version: 6.00 Build 0)  -->
<svg version="1.1" id="Слой_1" xmlns="http://www.w3.org/2000/svg" xmlns:xlink="http://www.w3.org/1999/xlink" x="0px" y="0px"
	 viewBox="0 0 162.5 90.9" style="enable-background:new 0 0 162.5 90.9;" xml:space="preserve">
<style type="text/css">
	.st0{clip-path:url(#SVGID_2_);}
</style>
<g>
	<defs>
		<rect id="SVGID_1_" x="0.1" y="0.5" width="162.4" height="90"/>
	</defs>
	<clipPath id="SVGID_2_">
		<use xlink:href="#SVGID_1_"  style="overflow:visible;"/>
	</clipPath>
	<g class="st0">
		<path d="M110.6,42.3c-0.2-1.6-0.7-2.7-1.4-3.4c-0.7-0.7-1.7-1.1-3-1.1c-1.2,0-2.1,0.5-2.7,1.4c-0.6,0.9-1.2,2.5-1.9,4.8l-4.4,16.3
			l-4.6-17.1c-0.5-2-1.1-3.4-1.7-4.2c-0.6-0.8-1.6-1.3-2.8-1.3c-2.4,0-3.9,1.5-4.3,4.6l-3,21.1c-0.5,3.5-0.8,5.5-0.8,6.1
			c0,0.8,0.3,1.6,0.8,2.2c0.3,0.3,0.6,0.5,0.9,0.7c0.3,0.2,0.7,0.2,1.1,0.2c0.9,0,1.6-0.3,2.2-0.9c0.5-0.6,0.9-1.6,1.2-3.2l2.5-19.1
			L94,69.7c0.3,1,0.7,1.7,1.1,2.2c0.5,0.5,1.2,0.8,2,0.8s1.5-0.2,2-0.7c0.5-0.5,0.9-1.3,1.2-2.4l5.4-20.1l2.5,18.9
			c0.2,1.5,0.5,2.6,1,3.3c0.5,0.7,1.3,1.1,2.3,1.1c0.4,0,0.8-0.1,1.1-0.2c0.3-0.2,0.7-0.4,0.9-0.7c0.5-0.6,0.8-1.4,0.8-2.2
			c0-0.6-0.1-1.5-0.3-2.9L110.6,42.3z"/>
		<path d="M134,38.9c-0.6-0.6-1.3-0.9-2.1-0.8h-14.7c-0.9,0-1.6,0.3-2.1,0.8c-0.5,0.6-0.8,1.3-0.8,2.3c0,0.9,0.3,1.7,0.8,2.3
			c0.6,0.6,1.2,0.8,2.1,0.8h4.4v24.9c0,1.1,0.3,1.9,0.8,2.6c0.5,0.6,1.3,1,2.2,1s1.6-0.3,2.1-1c0.5-0.6,0.8-1.5,0.8-2.6V44.3h4.4
			c0.8,0,1.5-0.3,2.1-0.8c0.6-0.6,0.9-1.3,0.9-2.3C134.9,40.2,134.6,39.5,134,38.9z"/>
		<path d="M161.2,66.2l-8.1-24.6c-0.9-2.7-2.3-4.1-4.2-4.1c-1.9,0-3.3,1.4-4.2,4.1l-7.9,23.9c-0.7,2-1,3.5-1,4.4
			c0,0.4,0.1,0.8,0.2,1.1c0.1,0.3,0.3,0.7,0.6,0.9c0.5,0.5,1.2,0.8,2,0.8c0.8,0,1.5-0.3,2-0.8c0.5-0.5,0.9-1.4,1.2-2.7l1.1-3.7h12.1
			l1.1,3.7c0.3,1.2,0.7,2,1.1,2.6c0.4,0.5,1.1,0.8,2,0.8c0.9,0,1.5-0.3,2-0.8c0.2-0.3,0.4-0.6,0.6-0.9c0.1-0.3,0.2-0.7,0.2-1.1
			C162.1,69.2,161.8,68,161.2,66.2z M144.7,59.4l4.3-13.8l4.1,13.8H144.7z"/>
		<path d="M10.7,78.5c-0.2,0-0.3,0.1-0.5,0.2c-0.1,0.1-0.3,0.3-0.3,0.4c-0.1,0.2-0.1,0.4-0.1,0.6c0,0.2,0.1,0.4,0.2,0.5
			c0.1,0.1,0.3,0.2,0.4,0.3c0.2,0,0.3,0,0.5-0.1c0.2-0.1,0.3-0.2,0.4-0.4c0.1-0.2,0.1-0.4,0.1-0.5c0-0.1,0-0.3-0.1-0.4
			c0-0.1-0.1-0.2-0.2-0.3c-0.1-0.1-0.2-0.2-0.3-0.2C10.9,78.5,10.8,78.5,10.7,78.5L10.7,78.5z"/>
		<path d="M88.8,78.5c-0.2,0-0.4,0.1-0.6,0.2c-0.2,0.1-0.3,0.3-0.4,0.5c-0.1,0.2-0.1,0.4-0.1,0.7c0,0.2,0.1,0.4,0.3,0.6
			c0.1,0.2,0.3,0.3,0.5,0.3c0.2,0,0.4,0,0.6-0.1c0.2-0.1,0.3-0.2,0.5-0.4c0.1-0.2,0.2-0.4,0.2-0.6c0-0.1,0-0.3-0.1-0.4
			c0-0.1-0.1-0.3-0.2-0.4c-0.1-0.1-0.2-0.2-0.3-0.3S88.9,78.5,88.8,78.5L88.8,78.5z"/>
		<path d="M155.4,78.5c-0.2,0-0.4,0.1-0.6,0.2c-0.2,0.1-0.3,0.3-0.4,0.5c-0.1,0.2-0.1,0.4-0.1,0.7c0,0.2,0.1,0.4,0.3,0.6
			c0.1,0.2,0.3,0.3,0.5,0.3s0.4,0,0.6-0.1c0.2-0.1,0.3-0.2,0.5-0.4c0.1-0.2,0.2-0.4,0.2-0.6c0-0.1,0-0.3-0.1-0.4
			c0-0.1-0.1-0.3-0.2-0.4c-0.1-0.1-0.2-0.2-0.3-0.3C155.7,78.5,155.6,78.5,155.4,78.5L155.4,78.5z"/>
		<path d="M8.1,80c0-0.3-0.2-0.6-0.4-0.9C7.6,79,7.3,78.9,7,78.9c-0.1,0-0.3,0-0.4,0.1c-0.1,0.1-0.2,0.2-0.3,0.3
			c-0.2,0.4-0.4,0.8-0.5,1.3l-1.3,4.7h0l-1.3-4.9c-0.1-0.4-0.2-0.8-0.5-1.1C2.7,79.1,2.6,79,2.5,79s-0.3-0.1-0.4-0.1
			c-0.6,0-1,0.4-1.1,1.2l-0.8,5.7C0.1,86.3,0,86.9,0,87.4c0,0.2,0.1,0.4,0.2,0.5c0.1,0.1,0.1,0.1,0.2,0.2c0.1,0,0.2,0.1,0.3,0.1
			c0.1,0,0.2,0,0.3,0c0.1,0,0.2-0.1,0.3-0.2c0.1-0.1,0.2-0.4,0.3-0.8l0.7-5.5h0l1.6,5.8C3.9,87.6,4,87.8,4.1,88
			c0.1,0.1,0.1,0.1,0.2,0.2c0.1,0,0.2,0,0.3,0c0.2,0,0.4-0.1,0.5-0.2c0.2-0.2,0.3-0.4,0.3-0.6l1.6-5.8h0l0.7,5.4
			c0,0.3,0.1,0.6,0.2,0.9C8,88,8.1,88.1,8.2,88.1c0.1,0,0.2,0.1,0.3,0c0.1,0,0.2,0,0.3-0.1C8.8,88.1,8.9,88,9,88
			c0.1-0.1,0.2-0.3,0.2-0.5c0-0.3,0-0.5-0.1-0.8L8.1,80z"/>
		<path d="M10.7,81.2c-0.1,0-0.2,0-0.3,0.1c-0.1,0-0.2,0.1-0.2,0.2C10.1,81.6,10,81.8,10,82v5.3c0,0.2,0.1,0.4,0.2,0.6
			c0.1,0.1,0.1,0.1,0.2,0.2c0.1,0,0.2,0.1,0.3,0.1c0.1,0,0.2,0,0.3-0.1c0.1,0,0.2-0.1,0.2-0.2c0.1-0.2,0.2-0.4,0.2-0.6V82
			c0-0.2-0.1-0.4-0.2-0.6c-0.1-0.1-0.1-0.1-0.2-0.2C10.9,81.2,10.8,81.2,10.7,81.2L10.7,81.2z"/>
		<path d="M18,84.4l1.6-1.6c0.1-0.1,0.3-0.3,0.4-0.5c0.1-0.1,0.1-0.3,0.1-0.5c0-0.2-0.1-0.3-0.2-0.4c-0.1-0.1-0.1-0.1-0.2-0.2
			c-0.1,0-0.2-0.1-0.3,0c-0.2,0-0.5,0.1-0.7,0.4l-2,2.2V82c0-0.2-0.1-0.4-0.2-0.6c-0.1-0.1-0.1-0.1-0.2-0.2c-0.1,0-0.2-0.1-0.3-0.1
			c-0.1,0-0.2,0-0.3,0.1s-0.2,0.1-0.2,0.2c-0.1,0.2-0.2,0.4-0.2,0.6v1.8l-2-2.2c-0.2-0.3-0.5-0.4-0.7-0.4c-0.1,0-0.2,0-0.3,0
			c-0.1,0-0.2,0.1-0.2,0.2c-0.1,0.1-0.1,0.1-0.1,0.2c0,0.1,0,0.2,0,0.3c0,0.1,0,0.3,0.1,0.4c0.1,0.2,0.3,0.3,0.4,0.5l1.6,1.6
			l-1.8,2.2c-0.3,0.4-0.4,0.7-0.4,0.9c0,0.1,0,0.2,0,0.3c0,0.1,0.1,0.2,0.1,0.2c0.1,0.1,0.3,0.2,0.4,0.2c0.2,0,0.3,0,0.5-0.2
			c0.2-0.2,0.4-0.4,0.6-0.6l1.8-2.3v2.3c0,0.2,0.1,0.4,0.2,0.6c0.1,0.1,0.1,0.1,0.2,0.2c0.1,0,0.2,0.1,0.3,0.1c0.1,0,0.2,0,0.3-0.1
			c0.1,0,0.2-0.1,0.2-0.2c0.1-0.2,0.2-0.4,0.2-0.6v-2.3l2.1,2.6c0.1,0.2,0.2,0.3,0.4,0.4c0.1,0.1,0.3,0.1,0.4,0.1
			c0.2,0,0.3-0.1,0.5-0.2c0.1-0.1,0.1-0.1,0.1-0.2c0-0.1,0-0.2,0-0.3c0-0.2-0.1-0.4-0.3-0.7L18,84.4z"/>
		<path d="M25.3,81.2c-0.1,0-0.2,0-0.3,0.1c-0.1,0-0.2,0.1-0.2,0.2c-0.1,0.2-0.2,0.4-0.2,0.6v1.9h-2.4V82c0-0.2-0.1-0.4-0.2-0.6
			c-0.1-0.1-0.1-0.1-0.2-0.2c-0.1,0-0.2-0.1-0.3-0.1c-0.1,0-0.2,0-0.3,0.1c-0.1,0-0.2,0.1-0.2,0.2c-0.1,0.2-0.2,0.4-0.2,0.6v5.3
			c0,0.2,0.1,0.4,0.2,0.6c0.1,0.1,0.1,0.1,0.2,0.2c0.1,0,0.2,0.1,0.3,0.1c0.1,0,0.2,0,0.3-0.1c0.1,0,0.2-0.1,0.2-0.2
			c0.1-0.2,0.2-0.4,0.2-0.6v-2.1h2.4v2.1c0,0.2,0.1,0.4,0.2,0.6c0.1,0.1,0.1,0.1,0.2,0.2c0.1,0,0.2,0.1,0.3,0.1c0.1,0,0.2,0,0.3-0.1
			c0.1,0,0.2-0.1,0.2-0.2c0.1-0.2,0.2-0.4,0.2-0.6v-5.3c0-0.2-0.1-0.4-0.2-0.6c-0.1-0.1-0.1-0.1-0.2-0.2
			C25.5,81.2,25.4,81.2,25.3,81.2z"/>
		<path d="M31.7,81.2c-0.2,0-0.3,0-0.4,0.1c-0.1,0.1-0.2,0.3-0.2,0.4l0,0.2h0c-0.2-0.3-0.4-0.5-0.7-0.6c-0.3-0.2-0.6-0.2-0.9-0.2
			c-0.4,0-0.7,0.1-1.1,0.3c-0.3,0.2-0.6,0.4-0.9,0.8c-0.5,0.7-0.8,1.6-0.8,2.5c0,1,0.3,1.9,0.8,2.6c0.2,0.3,0.5,0.6,0.9,0.8
			c0.3,0.2,0.7,0.3,1.1,0.3c0.3,0,0.6-0.1,0.9-0.2c0.3-0.2,0.5-0.4,0.7-0.7h0l0,0.2c0,0.1,0.1,0.3,0.2,0.4c0.1,0.1,0.2,0.2,0.3,0.2
			s0.2,0,0.4,0c0.1,0,0.2-0.1,0.3-0.2c0.1-0.2,0.2-0.4,0.2-0.6V82c0-0.2-0.1-0.4-0.2-0.6c-0.1-0.1-0.1-0.1-0.2-0.2
			C31.9,81.2,31.8,81.2,31.7,81.2z M30.7,86.2c-0.1,0.2-0.3,0.3-0.5,0.4c-0.2,0.1-0.4,0.2-0.6,0.2c-0.2,0-0.4-0.1-0.6-0.2
			c-0.2-0.1-0.3-0.3-0.5-0.4c-0.2-0.5-0.4-1-0.4-1.5s0.1-1.1,0.4-1.5c0.1-0.2,0.3-0.3,0.4-0.4c0.2-0.1,0.4-0.2,0.6-0.2
			c0.2,0,0.4,0,0.6,0.1c0.2,0.1,0.3,0.3,0.5,0.4c0.2,0.5,0.4,1,0.4,1.5C31,85.2,30.9,85.7,30.7,86.2L30.7,86.2z"/>
		<path d="M36.5,81.1c-0.7,0-1.3,0.3-1.6,0.9h0l0-0.2c0-0.2-0.1-0.3-0.2-0.4c-0.1-0.1-0.3-0.2-0.4-0.1c-0.1,0-0.2,0-0.3,0.1
			c-0.1,0-0.2,0.1-0.2,0.2c-0.1,0.2-0.2,0.4-0.2,0.6v8.1c0,0.2,0.1,0.4,0.2,0.6c0.1,0.1,0.1,0.1,0.2,0.2s0.2,0.1,0.3,0.1
			c0.1,0,0.2,0,0.3-0.1c0.1,0,0.2-0.1,0.2-0.2c0.1-0.2,0.2-0.4,0.2-0.6v-2.6h0c0.2,0.2,0.4,0.4,0.7,0.5c0.3,0.1,0.5,0.2,0.8,0.2
			c0.4,0,0.7-0.1,1.1-0.3c0.3-0.2,0.6-0.4,0.9-0.8c0.5-0.7,0.8-1.6,0.8-2.5c0-0.9-0.3-1.8-0.8-2.5c-0.2-0.3-0.5-0.6-0.9-0.8
			C37.2,81.2,36.9,81.1,36.5,81.1L36.5,81.1z M37.4,86.2c-0.1,0.2-0.3,0.3-0.5,0.4c-0.2,0.1-0.4,0.2-0.6,0.2c-0.2,0-0.4-0.1-0.6-0.2
			c-0.2-0.1-0.3-0.3-0.5-0.4c-0.2-0.5-0.4-1-0.4-1.5c0-0.5,0.1-1.1,0.4-1.5c0.1-0.2,0.3-0.3,0.4-0.4c0.2-0.1,0.4-0.2,0.6-0.1
			c0.2,0,0.4,0,0.6,0.1c0.2,0.1,0.3,0.3,0.5,0.4c0.2,0.5,0.4,1,0.4,1.5C37.7,85.2,37.6,85.8,37.4,86.2L37.4,86.2z"/>
		<path d="M42.5,81.1c-0.4,0-0.8,0.1-1.1,0.2c-0.4,0.2-0.7,0.4-0.9,0.8c-0.5,0.7-0.8,1.5-0.8,2.6c0,1,0.3,1.9,0.8,2.6
			c0.3,0.3,0.6,0.6,0.9,0.7s0.7,0.3,1.1,0.3c0.4,0,0.8-0.1,1.1-0.3s0.7-0.4,0.9-0.7c0.5-0.7,0.8-1.5,0.8-2.6c0-1-0.3-1.9-0.8-2.6
			c-0.3-0.3-0.6-0.6-0.9-0.8C43.3,81.2,42.9,81.1,42.5,81.1L42.5,81.1z M43.6,86.2c-0.1,0.2-0.3,0.3-0.5,0.4
			c-0.2,0.1-0.4,0.2-0.6,0.2c-0.2,0-0.4-0.1-0.6-0.2c-0.2-0.1-0.3-0.3-0.5-0.4c-0.2-0.5-0.4-1-0.4-1.5c0-0.5,0.1-1.1,0.4-1.5
			c0.1-0.2,0.3-0.3,0.4-0.4c0.2-0.1,0.4-0.2,0.6-0.1c0.2,0,0.4,0,0.6,0.1c0.2,0.1,0.3,0.3,0.5,0.4c0.2,0.5,0.4,1,0.4,1.5
			C44,85.2,43.8,85.8,43.6,86.2L43.6,86.2z"/>
		<path d="M51.8,86.6h-0.3V82c0-0.1,0-0.2,0-0.3c0-0.1-0.1-0.2-0.2-0.2c-0.1-0.1-0.3-0.2-0.5-0.2h-2.8c-0.2,0-0.4,0.1-0.5,0.2
			c-0.1,0.2-0.2,0.4-0.3,0.6l-0.4,2.7c-0.1,0.9-0.3,1.5-0.6,1.9h-0.1c-0.1,0-0.2,0-0.3,0c-0.1,0-0.2,0.1-0.2,0.2
			c-0.1,0.2-0.2,0.4-0.2,0.6v1.9c0,0.2,0.1,0.4,0.2,0.6c0.1,0.1,0.1,0.1,0.2,0.2c0.1,0,0.2,0.1,0.3,0.1c0.1,0,0.2,0,0.3,0
			c0.1,0,0.2-0.1,0.2-0.2c0.1-0.2,0.2-0.4,0.2-0.6v-1.2h4.5v1.2c0,0.2,0.1,0.4,0.2,0.6c0.1,0.1,0.1,0.1,0.2,0.2
			c0.1,0,0.2,0.1,0.3,0.1c0.4,0,0.6-0.3,0.6-0.9v-1.9c0-0.1,0-0.2,0-0.3s-0.1-0.2-0.1-0.2c-0.1-0.1-0.2-0.1-0.3-0.2
			C52,86.6,51.9,86.6,51.8,86.6z M50.1,86.6h-2.4c0.2-0.4,0.3-0.9,0.4-1.3l0.4-2.6h1.6V86.6z"/>
		<path d="M57.6,81.2c-0.1,0-0.2,0-0.3,0.1c-0.1,0-0.2,0.1-0.2,0.2c-0.1,0.2-0.2,0.4-0.2,0.6v1.9h-2.4V82c0-0.2-0.1-0.4-0.2-0.6
			c-0.1-0.1-0.1-0.1-0.2-0.2s-0.2-0.1-0.3-0.1c-0.1,0-0.2,0-0.3,0.1c-0.1,0-0.2,0.1-0.2,0.2c-0.1,0.2-0.2,0.4-0.2,0.6v5.3
			c0,0.2,0.1,0.4,0.2,0.6c0.1,0.1,0.1,0.1,0.2,0.2c0.1,0,0.2,0.1,0.3,0.1c0.1,0,0.2,0,0.3-0.1c0.1,0,0.2-0.1,0.2-0.2
			c0.1-0.2,0.2-0.4,0.2-0.6v-2.1h2.4v2.1c0,0.2,0.1,0.4,0.2,0.6c0.1,0.1,0.1,0.1,0.2,0.2c0.1,0,0.2,0.1,0.3,0.1c0.1,0,0.2,0,0.3-0.1
			c0.1,0,0.2-0.1,0.2-0.2c0.1-0.2,0.2-0.4,0.2-0.6v-5.3c0-0.2-0.1-0.4-0.2-0.6c-0.1-0.1-0.1-0.1-0.2-0.2
			C57.8,81.2,57.7,81.2,57.6,81.2L57.6,81.2z"/>
		<path d="M64.1,81.2c-0.2,0-0.3,0-0.4,0.1c-0.1,0.1-0.2,0.3-0.2,0.4l0,0.2h0c-0.2-0.3-0.4-0.5-0.7-0.6c-0.3-0.2-0.6-0.2-0.9-0.2
			c-0.4,0-0.7,0.1-1.1,0.3c-0.3,0.2-0.6,0.4-0.9,0.8c-0.5,0.7-0.8,1.6-0.8,2.5c0,1,0.3,1.9,0.8,2.6c0.2,0.3,0.5,0.6,0.9,0.8
			c0.3,0.2,0.7,0.3,1.1,0.3c0.3,0,0.6-0.1,0.9-0.2s0.5-0.4,0.7-0.7h0l0,0.2c0,0.2,0.1,0.3,0.2,0.4c0.1,0.1,0.3,0.2,0.4,0.1
			c0.1,0,0.2,0,0.3-0.1c0.1,0,0.2-0.1,0.2-0.2c0.1-0.2,0.2-0.4,0.2-0.6V82c0-0.2-0.1-0.4-0.2-0.6c-0.1-0.1-0.1-0.1-0.2-0.2
			C64.3,81.2,64.2,81.2,64.1,81.2z M63,86.2c-0.1,0.2-0.3,0.3-0.5,0.4c-0.2,0.1-0.4,0.2-0.6,0.2s-0.4-0.1-0.6-0.2
			c-0.2-0.1-0.3-0.3-0.5-0.4c-0.2-0.5-0.4-1-0.4-1.5s0.1-1.1,0.4-1.5c0.1-0.2,0.3-0.3,0.4-0.4c0.2-0.1,0.4-0.2,0.6-0.1
			c0.2,0,0.4,0,0.6,0.1c0.2,0.1,0.3,0.3,0.5,0.4c0.2,0.5,0.4,1,0.4,1.5C63.4,85.2,63.2,85.7,63,86.2L63,86.2z"/>
		<path d="M75.4,80.6c0.1-0.1,0.1-0.2,0.2-0.3c0-0.1,0.1-0.2,0.1-0.4c0-0.1,0-0.3-0.1-0.4c0-0.1-0.1-0.2-0.2-0.3
			C75.3,79,75.1,79,74.8,79h-4c-0.2,0-0.4,0.1-0.6,0.2c-0.1,0.1-0.1,0.2-0.2,0.3c0,0.1-0.1,0.2-0.1,0.4c0,0.1,0,0.2,0.1,0.4
			c0,0.1,0.1,0.2,0.2,0.3c0.2,0.2,0.4,0.2,0.6,0.2H72v6.7c0,0.3,0.1,0.5,0.2,0.7c0.1,0.1,0.2,0.2,0.3,0.2c0.1,0,0.2,0.1,0.3,0.1
			c0.1,0,0.2,0,0.3-0.1c0.1-0.1,0.2-0.1,0.3-0.2c0.2-0.2,0.2-0.5,0.2-0.7v-6.7h1.1C75.1,80.8,75.3,80.7,75.4,80.6L75.4,80.6z"/>
		<path d="M80.4,85.4c0.1-0.1,0.1-0.2,0.2-0.3c0-0.1,0.1-0.2,0-0.4c0-0.9-0.3-1.8-0.8-2.5c-0.3-0.3-0.6-0.6-0.9-0.8
			c-0.4-0.2-0.8-0.3-1.2-0.3c-0.4,0-0.8,0.1-1.2,0.3c-0.4,0.2-0.7,0.5-1,0.8c-0.5,0.7-0.8,1.7-0.8,2.6s0.3,1.9,0.8,2.6
			c0.6,0.7,1.3,1.1,2.3,1.1c0.9,0,1.6-0.2,2.2-0.7c0.3-0.3,0.5-0.6,0.5-1c0-0.1,0-0.2,0-0.3c0-0.1-0.1-0.2-0.2-0.3
			c-0.2-0.3-0.6-0.4-1.1,0c-0.4,0.3-0.9,0.5-1.4,0.6c-0.4,0-0.7-0.1-1-0.4c-0.2-0.2-0.4-0.5-0.4-0.9h3.3
			C80,85.6,80.2,85.5,80.4,85.4z M76.4,84.1c0-0.3,0.2-0.7,0.4-0.9c0.1-0.1,0.2-0.2,0.4-0.3c0.1-0.1,0.3-0.1,0.5-0.1
			c0.2,0,0.3,0,0.5,0.1c0.1,0.1,0.3,0.2,0.4,0.3c0.2,0.2,0.3,0.6,0.4,0.9L76.4,84.1z"/>
		<path d="M86,81.2c-0.1,0-0.2,0-0.3,0.1c-0.1,0.1-0.2,0.1-0.3,0.2c-0.1,0.2-0.2,0.4-0.2,0.7v1.7H83v-1.7c0-0.3-0.1-0.5-0.2-0.7
			c-0.1-0.1-0.2-0.2-0.3-0.2c-0.1-0.1-0.2-0.1-0.3-0.1c-0.1,0-0.2,0-0.3,0.1c-0.1,0.1-0.2,0.1-0.3,0.2c-0.2,0.2-0.2,0.4-0.2,0.7v5.3
			c0,0.3,0.1,0.5,0.2,0.7c0.1,0.1,0.2,0.2,0.3,0.2c0.1,0.1,0.2,0.1,0.3,0.1c0.1,0,0.2,0,0.3-0.1c0.1-0.1,0.2-0.1,0.3-0.2
			C83,88,83,87.8,83,87.5v-2h2.1v2c0,0.3,0.1,0.5,0.2,0.7c0.1,0.1,0.2,0.2,0.3,0.2c0.1,0.1,0.2,0.1,0.3,0.1c0.1,0,0.2,0,0.3-0.1
			c0.1-0.1,0.2-0.1,0.3-0.2c0.2-0.2,0.2-0.5,0.2-0.7v-5.3c0-0.3-0.1-0.5-0.2-0.7c-0.1-0.1-0.2-0.2-0.3-0.2
			C86.2,81.2,86.1,81.2,86,81.2L86,81.2z"/>
		<path d="M88.8,81.2c-0.1,0-0.2,0-0.3,0.1c-0.1,0.1-0.2,0.1-0.3,0.2c-0.2,0.2-0.2,0.4-0.2,0.7v5.3c0,0.3,0.1,0.5,0.2,0.7
			c0.1,0.1,0.2,0.2,0.3,0.2c0.1,0.1,0.2,0.1,0.3,0.1c0.1,0,0.2,0,0.3-0.1c0.1-0.1,0.2-0.1,0.3-0.2c0.2-0.2,0.2-0.4,0.2-0.7v-5.3
			c0-0.3-0.1-0.5-0.2-0.7c-0.1-0.1-0.2-0.2-0.3-0.2C89,81.2,88.9,81.2,88.8,81.2L88.8,81.2z"/>
		<path d="M93.5,82.9c0.3,0,0.5,0.1,0.8,0.2c0.1,0.1,0.3,0.1,0.4,0.1c0.1,0,0.2,0,0.3-0.1c0.1,0,0.2-0.1,0.2-0.2
			c0.1-0.2,0.2-0.4,0.2-0.7c0-0.4-0.2-0.7-0.6-1c-0.4-0.2-0.9-0.3-1.4-0.3c-0.4,0-0.8,0.1-1.2,0.3c-0.4,0.2-0.7,0.5-1,0.8
			c-0.5,0.7-0.8,1.7-0.8,2.6c0,1,0.3,1.9,0.8,2.6c0.3,0.4,0.6,0.6,1,0.8c0.4,0.2,0.8,0.3,1.2,0.3c0.5,0,0.9-0.1,1.4-0.3
			c0.5-0.2,0.7-0.6,0.7-1c0-0.2-0.1-0.4-0.2-0.6c-0.1-0.1-0.1-0.1-0.2-0.2c-0.1,0-0.2-0.1-0.3-0.1c-0.1,0-0.1,0-0.2,0l-0.2,0.1
			c-0.1,0-0.1,0.1-0.2,0.1c-0.2,0.1-0.5,0.2-0.8,0.2c-0.2,0-0.4,0-0.5-0.1c-0.2-0.1-0.3-0.2-0.4-0.4c-0.3-0.4-0.4-0.9-0.4-1.4
			c0-0.5,0.1-1,0.4-1.4c0.1-0.2,0.3-0.3,0.4-0.4C93.1,83,93.3,82.9,93.5,82.9L93.5,82.9z"/>
		<path d="M100.8,81.2c-0.1,0-0.2,0-0.3,0.1c-0.1,0.1-0.2,0.1-0.3,0.2c-0.1,0.2-0.2,0.4-0.2,0.7v1.7h-2.1v-1.7
			c0-0.3-0.1-0.5-0.2-0.7c-0.1-0.1-0.2-0.2-0.3-0.2c-0.1-0.1-0.2-0.1-0.3-0.1c-0.1,0-0.2,0-0.3,0.1c-0.1,0.1-0.2,0.1-0.3,0.2
			c-0.2,0.2-0.2,0.4-0.2,0.7v5.3c0,0.3,0.1,0.5,0.2,0.7c0.1,0.1,0.2,0.2,0.3,0.2c0.1,0.1,0.2,0.1,0.3,0.1c0.1,0,0.2,0,0.3-0.1
			c0.1-0.1,0.2-0.1,0.3-0.2c0.2-0.2,0.2-0.4,0.2-0.7v-2h2.1v2c0,0.3,0.1,0.5,0.2,0.7c0.1,0.1,0.2,0.2,0.3,0.2
			c0.1,0.1,0.2,0.1,0.3,0.1c0.1,0,0.2,0,0.3-0.1c0.1-0.1,0.2-0.1,0.3-0.2c0.2-0.2,0.2-0.5,0.2-0.7v-5.3c0-0.3-0.1-0.5-0.2-0.7
			c-0.1-0.1-0.2-0.2-0.3-0.2C101.1,81.2,100.9,81.2,100.8,81.2z"/>
		<path d="M107.6,81.2c-0.2,0-0.3,0-0.5,0.2c-0.1,0.1-0.2,0.3-0.3,0.5c-0.2-0.2-0.4-0.4-0.7-0.5c-0.3-0.1-0.5-0.2-0.8-0.2
			c-0.4,0-0.8,0.1-1.1,0.3c-0.3,0.2-0.7,0.5-0.9,0.8c-0.5,0.7-0.8,1.7-0.8,2.6c0,1.1,0.3,2,0.8,2.7c0.2,0.3,0.6,0.6,0.9,0.8
			c0.4,0.2,0.7,0.3,1.1,0.3c0.3,0,0.6,0,0.8-0.2c0.3-0.1,0.5-0.3,0.7-0.5c0,0.2,0.2,0.3,0.3,0.5s0.3,0.2,0.5,0.1
			c0.1,0,0.2,0,0.3-0.1c0.1-0.1,0.2-0.1,0.3-0.2c0.2-0.2,0.2-0.4,0.2-0.7v-5.3c0-0.3-0.1-0.5-0.2-0.7c-0.1-0.1-0.2-0.2-0.3-0.2
			C107.8,81.2,107.7,81.2,107.6,81.2z M106.4,86.3c-0.1,0.2-0.2,0.3-0.4,0.4c-0.2,0.1-0.3,0.1-0.5,0.1c-0.2,0-0.4,0-0.5-0.1
			c-0.2-0.1-0.3-0.2-0.4-0.4c-0.2-0.4-0.4-0.9-0.4-1.4s0.1-1,0.4-1.4c0.1-0.2,0.2-0.3,0.4-0.4c0.2-0.1,0.3-0.1,0.5-0.1
			c0.2,0,0.4,0,0.5,0.1c0.2,0.1,0.3,0.2,0.4,0.4c0.2,0.4,0.4,0.9,0.4,1.4C106.7,85.4,106.6,85.8,106.4,86.3L106.4,86.3z"/>
		<path d="M117.1,80c-0.2-0.8-0.7-1.2-1.2-1.2s-1,0.4-1.2,1.2l-2.1,6.5c-0.2,0.4-0.2,0.8-0.3,1.2c0,0.1,0,0.2,0.1,0.3
			c0,0.1,0.1,0.2,0.2,0.3c0.2,0.2,0.4,0.2,0.6,0.2c0.1,0,0.2,0,0.3-0.1c0.1,0,0.2-0.1,0.3-0.2c0.2-0.2,0.3-0.5,0.4-0.8l0.3-0.9h3.2
			l0.3,1c0.1,0.3,0.2,0.5,0.3,0.7c0.1,0.1,0.2,0.2,0.3,0.2c0.1,0,0.2,0.1,0.3,0.1c0.2,0,0.4-0.1,0.6-0.2c0.1-0.1,0.1-0.2,0.2-0.3
			c0-0.1,0.1-0.2,0.1-0.3c0-0.4-0.1-0.7-0.2-1L117.1,80z M114.9,84.8l1.1-3.4l1,3.4H114.9z"/>
		<path d="M123.2,84.6l1.5-1.5c0.4-0.4,0.5-0.7,0.5-1c0-0.1,0-0.2-0.1-0.3c0-0.1-0.1-0.2-0.2-0.3c-0.3-0.4-0.8-0.4-1.4,0.2l-1.7,1.9
			v-1.4c0-0.3-0.1-0.5-0.2-0.7c-0.1-0.1-0.2-0.2-0.3-0.2c-0.1-0.1-0.2-0.1-0.3-0.1c-0.1,0-0.2,0-0.3,0.1c-0.1,0.1-0.2,0.1-0.3,0.2
			c-0.2,0.2-0.2,0.4-0.2,0.7v5.3c0,0.3,0.1,0.5,0.2,0.7c0.1,0.1,0.2,0.2,0.3,0.2c0.1,0.1,0.2,0.1,0.3,0.1c0.1,0,0.2,0,0.3-0.1
			c0.1-0.1,0.2-0.1,0.3-0.2c0.2-0.2,0.2-0.4,0.2-0.7v-1.9l1.7,2.2c0.2,0.2,0.3,0.4,0.5,0.6c0.2,0.1,0.3,0.1,0.5,0.1
			c0.2,0,0.4-0.1,0.6-0.2c0.1-0.1,0.1-0.2,0.2-0.3c0-0.1,0.1-0.2,0.1-0.3c0-0.2-0.1-0.5-0.4-0.9L123.2,84.6z"/>
		<path d="M130.6,81.2c-0.2,0-0.3,0-0.5,0.2c-0.1,0.1-0.2,0.3-0.3,0.5c-0.2-0.2-0.4-0.4-0.7-0.5c-0.3-0.1-0.5-0.2-0.8-0.2
			c-0.4,0-0.8,0.1-1.1,0.3c-0.4,0.2-0.7,0.5-0.9,0.8c-0.5,0.7-0.8,1.7-0.8,2.6c0,1.1,0.3,2,0.8,2.7c0.2,0.3,0.6,0.6,0.9,0.8
			c0.4,0.2,0.7,0.3,1.1,0.3c0.3,0,0.6,0,0.8-0.2c0.3-0.1,0.5-0.3,0.7-0.5c0,0.2,0.2,0.3,0.3,0.5c0.1,0.1,0.3,0.2,0.5,0.1
			c0.1,0,0.2,0,0.3-0.1c0.1-0.1,0.2-0.1,0.3-0.2c0.1-0.2,0.2-0.4,0.2-0.7v-5.3c0-0.3-0.1-0.5-0.2-0.7c-0.1-0.1-0.2-0.2-0.3-0.2
			C130.9,81.2,130.8,81.2,130.6,81.2L130.6,81.2z M129.4,86.3c-0.1,0.2-0.2,0.3-0.4,0.4c-0.2,0.1-0.3,0.1-0.5,0.1
			c-0.2,0-0.4,0-0.5-0.1c-0.2-0.1-0.3-0.2-0.4-0.4c-0.2-0.4-0.4-0.9-0.4-1.4c0-0.5,0.1-1,0.4-1.4c0.1-0.2,0.2-0.3,0.4-0.4
			c0.2-0.1,0.3-0.1,0.5-0.1c0.2,0,0.4,0,0.5,0.1c0.2,0.1,0.3,0.2,0.4,0.4c0.2,0.4,0.4,0.9,0.4,1.4S129.7,85.8,129.4,86.3L129.4,86.3
			z"/>
		<path d="M138.5,86.6h-0.2v-4.5c0-0.1,0-0.2-0.1-0.4c0-0.1-0.1-0.2-0.2-0.3c-0.2-0.2-0.4-0.2-0.6-0.2h-2.8c-0.2,0-0.4,0.1-0.6,0.2
			c-0.2,0.2-0.3,0.4-0.3,0.7l-0.4,2.7c-0.1,0.8-0.3,1.4-0.5,1.7h-0.1c-0.1,0-0.2,0-0.3,0.1c-0.1,0.1-0.2,0.1-0.3,0.2
			c-0.1,0.2-0.2,0.4-0.2,0.7v1.9c0,0.3,0.1,0.5,0.2,0.7c0.1,0.1,0.2,0.2,0.3,0.2s0.2,0.1,0.3,0.1c0.1,0,0.2,0,0.3-0.1
			c0.1,0,0.2-0.1,0.3-0.2c0.1-0.2,0.2-0.4,0.2-0.7v-1.1h4.3v1.1c0,0.3,0.1,0.5,0.2,0.7c0.1,0.1,0.2,0.2,0.3,0.2
			c0.1,0,0.2,0.1,0.3,0.1c0.3,0,0.8-0.1,0.8-1v-1.9c0-0.1,0-0.2-0.1-0.3c0-0.1-0.1-0.2-0.2-0.3c-0.1-0.1-0.2-0.2-0.3-0.2
			C138.8,86.7,138.7,86.6,138.5,86.6L138.5,86.6z M136.7,86.6h-2c0.1-0.4,0.2-0.8,0.3-1.2l0.4-2.4h1.4V86.6z"/>
		<path d="M145.2,85.4c0.1-0.1,0.1-0.2,0.2-0.3c0-0.1,0.1-0.2,0-0.4c0-0.9-0.3-1.8-0.8-2.5c-0.3-0.3-0.6-0.6-0.9-0.8
			c-0.4-0.2-0.8-0.3-1.2-0.3c-0.4,0-0.8,0.1-1.2,0.3c-0.4,0.2-0.7,0.5-1,0.8c-0.6,0.7-0.9,1.7-0.9,2.6c0,1,0.3,1.9,0.9,2.6
			c0.6,0.7,1.3,1.1,2.3,1.1c0.9,0,1.6-0.2,2.2-0.7c0.3-0.3,0.5-0.6,0.5-1c0-0.1,0-0.2,0-0.3c0-0.1-0.1-0.2-0.2-0.3
			c-0.2-0.3-0.6-0.4-1.1,0c-0.4,0.3-0.9,0.5-1.4,0.6c-0.4,0-0.7-0.1-1-0.4c-0.2-0.2-0.4-0.5-0.4-0.9h3.3
			C144.8,85.6,145.1,85.5,145.2,85.4L145.2,85.4z M141.3,84.1c0-0.3,0.2-0.7,0.4-0.9c0.1-0.1,0.2-0.2,0.4-0.3
			c0.1-0.1,0.3-0.1,0.5-0.1c0.2,0,0.3,0,0.5,0.1c0.1,0.1,0.3,0.2,0.4,0.3c0.2,0.2,0.3,0.6,0.4,0.9L141.3,84.1z"/>
		<path d="M153.1,82.4c-0.1-1-0.7-1.2-1.1-1.2c-0.3,0-0.5,0.1-0.7,0.3s-0.4,0.4-0.4,0.7l-0.9,3.2l-0.9-3.2c-0.1-0.3-0.2-0.5-0.4-0.7
			c-0.2-0.2-0.5-0.3-0.7-0.2c-0.7,0-1.1,0.4-1.2,1.1l-0.6,4.5c0,0.3-0.1,0.5-0.1,0.8c0,0.1,0,0.2,0.1,0.4s0.1,0.2,0.2,0.3
			c0.1,0.1,0.2,0.2,0.3,0.2c0.1,0,0.2,0.1,0.3,0.1c0.3,0,0.8-0.2,0.8-1l0.3-3.2l0.9,3.2c0.1,0.3,0.2,0.6,0.4,0.8
			c0.2,0.2,0.4,0.2,0.6,0.2c0.1,0,0.2,0,0.3-0.1c0.1,0,0.2-0.1,0.3-0.2c0.2-0.2,0.3-0.5,0.4-0.8l0.9-3.2l0.4,3.3
			c0.1,0.8,0.5,0.9,0.8,0.9c0.2,0,0.4-0.1,0.6-0.3c0.1-0.1,0.1-0.2,0.2-0.3c0-0.1,0.1-0.2,0.1-0.4c0-0.2,0-0.4-0.1-0.6L153.1,82.4z"
			/>
		<path d="M155.4,81.2c-0.1,0-0.2,0-0.3,0.1s-0.2,0.1-0.3,0.2c-0.2,0.2-0.2,0.4-0.2,0.7v5.3c0,0.3,0.1,0.5,0.2,0.7
			c0.1,0.1,0.2,0.2,0.3,0.2c0.1,0.1,0.2,0.1,0.3,0.1c0.1,0,0.2,0,0.3-0.1c0.1-0.1,0.2-0.1,0.3-0.2c0.2-0.2,0.2-0.4,0.2-0.7v-5.3
			c0-0.3-0.1-0.5-0.2-0.7c-0.1-0.1-0.2-0.2-0.3-0.2C155.7,81.2,155.6,81.2,155.4,81.2L155.4,81.2z"/>
		<path d="M162.1,81.5c-0.2-0.2-0.4-0.3-0.7-0.3h-1.7c-0.8,0-1.4,0.2-1.9,0.6c-0.2,0.2-0.4,0.5-0.6,0.8s-0.2,0.6-0.2,1
			c0,0.3,0,0.5,0.1,0.8c0.1,0.3,0.2,0.5,0.4,0.7c0.3,0.3,0.8,0.5,1.2,0.5l-1.4,1.4c-0.1,0.1-0.2,0.2-0.3,0.4
			c-0.1,0.1-0.1,0.3-0.1,0.4c0,0.1,0,0.2,0.1,0.3c0,0.1,0.1,0.2,0.2,0.3c0.2,0.2,0.4,0.2,0.6,0.2c0.3,0,0.6-0.2,0.9-0.6l1.9-2v1.6
			c0,0.3,0.1,0.5,0.2,0.7c0.1,0.1,0.2,0.2,0.3,0.2c0.1,0,0.2,0.1,0.3,0.1c0.1,0,0.2,0,0.3-0.1c0.1,0,0.2-0.1,0.3-0.2
			c0.1-0.1,0.1-0.2,0.2-0.3c0-0.1,0.1-0.2,0.1-0.4v-5.4c0-0.1,0-0.3-0.1-0.4C162.2,81.7,162.2,81.6,162.1,81.5L162.1,81.5z
			 M160.7,84.2h-1.1c-0.7,0-0.8-0.3-0.8-0.6c0-0.1,0-0.2,0-0.3c0-0.1,0.1-0.1,0.2-0.2c0.2-0.1,0.4-0.2,0.6-0.2h1.1L160.7,84.2z"/>
		<path d="M107.7,9.9c0.7,0,1.4-0.2,2-0.6c0.6-0.4,1.2-0.9,1.6-1.6s0.7-1.4,0.8-2.2c0.1-0.8,0-1.6-0.2-2.3c-0.4,0.6-0.8,1.3-1.2,2
			c-0.2,0.5-0.4,0.9-0.5,1.3c-0.4,1.1-0.7,1.9-1.2,2.1c-0.3,0.2-0.7,0.3-1.1,0.3c-0.7,0-1.5-0.3-2.1-0.8c-1-0.8-1.5-1.7-1.4-2.7
			c0.1-1.2,0.6-1.7,1.3-2.4c0.2-0.2,0.4-0.4,0.6-0.6c0.6-0.6,1.1-1.7,1.4-2.5c-1.1,0-2.2,0.6-3,1.5c-0.8,0.9-1.2,2.2-1.2,3.5
			c0,1.3,0.5,2.5,1.3,3.5C105.4,9.4,106.5,9.9,107.7,9.9L107.7,9.9z"/>
		<path d="M106,3.6c-0.7,0.7-1,1-1.1,2c-0.1,0.8,0.3,1.5,1.2,2.1c0.9,0.7,1.9,0.9,2.6,0.5c0.3-0.2,0.6-0.9,1-1.9
			c0.2-0.4,0.3-0.9,0.6-1.4c0.4-0.9,0.9-1.7,1.4-2.4c-0.3-0.7-0.8-1.3-1.4-1.7c-0.6-0.4-1.2-0.7-1.9-0.8c-0.4,0.9-1,2.2-1.6,2.9
			C106.4,3.2,106.2,3.4,106,3.6z"/>
		<path d="M59.7,47.2c0.1,0,0.2,0,0.2-0.1c0.1-0.1,0.1-0.1,0.1-0.2c0-0.1,2.7-10.4,14.5-22.7c11.8-12.2,25.6-15.6,25.8-15.7
			c0.1,0,0.3-0.1,0.3-0.3c0.1-0.1,0.1-0.3,0.1-0.5c0-0.2-0.1-0.3-0.2-0.4c-0.1-0.1-0.3-0.1-0.4-0.1c-0.1,0-14.2,3.5-26.3,16
			C61.7,35.7,59.5,46.1,59.4,46.5C59.4,46.9,59.4,47.1,59.7,47.2z"/>
		<path d="M118.5,15c-0.7-0.1-18.4-1.7-37.1,10.4c-14.1,9.1-19.9,21.8-22.1,27.9C56.1,48.9,49,40.6,37.9,35.5
			c-15.3-7-32.1-5.8-32.9-5.7c-0.2,0-0.4,0.1-0.7,0.2c-0.2,0.1-0.4,0.3-0.5,0.5c-0.1,0.2-0.3,0.4-0.3,0.7s-0.1,0.5-0.1,0.8
			c0,0.3,0.1,0.5,0.2,0.7C3.7,32.8,3.8,33,4,33.2c0.2,0.2,0.4,0.3,0.6,0.4c0.2,0.1,0.4,0.1,0.7,0.1c0.2,0,16.7-1.3,31.3,5.4
			C51,45.7,58.4,58.4,58.5,58.5c0.2,0.3,0.4,0.5,0.6,0.6c0.2,0.2,0.5,0.2,0.8,0.2c0.1,0,0.2,0,0.3,0c0.3-0.1,0.6-0.2,0.9-0.5
			c0.2-0.3,0.4-0.6,0.5-1c0-0.2,4-17.8,21.5-29.1c17.7-11.5,34.9-9.9,35.1-9.9c0.4,0,0.9-0.1,1.2-0.4c0.3-0.3,0.6-0.8,0.6-1.3
			c0-0.5-0.1-1-0.4-1.4C119.3,15.3,118.9,15.1,118.5,15L118.5,15z"/>
		<path d="M34.7,27.1c13.2,5.5,22.9,20.8,23,20.9c0.2,0.3,0.3,0.5,0.5,0.4c0.4-0.3,0.1-0.4-0.2-0.9c-0.4-0.7-9-16.5-22.7-22.2
			c-13.6-5.7-33.5-5-34.3-5c-0.2,0-0.4,0.1-0.6,0.3c-0.2,0.2-0.2,0.4-0.2,0.7c0,0.3,0.1,0.5,0.3,0.7c0.2,0.2,0.4,0.3,0.6,0.3
			C1.3,22.3,21.4,21.6,34.7,27.1z"/>
	</g>
</g>
</svg>
