<svg width="375" height="541" viewBox="0 0 375 541" fill="none" xmlns="http://www.w3.org/2000/svg">
<path opacity="0.25" d="M187.5 541C369.202 541 516.5 393.702 516.5 212C516.5 30.2983 369.202 -117 187.5 -117C5.79832 -117 -141.5 30.2983 -141.5 212C-141.5 393.702 5.79832 541 187.5 541Z" fill="white"/>
<path opacity="0.57" d="M187.5 500C347.11 500 476.5 370.61 476.5 211C476.5 51.3897 347.11 -78 187.5 -78C27.8897 -78 -101.5 51.3897 -101.5 211C-101.5 370.61 27.8897 500 187.5 500Z" fill="white"/>
<path opacity="0.77" d="M185.148 -19C243.071 -19 347.954 -43.309 388.579 -7.88202C436.634 34.024 415.148 141.548 415.148 210.5C415.148 337.249 312.173 440 185.148 440C58.1229 440 -44.8521 337.249 -44.8521 210.5C-44.8521 141.676 -48.9001 40.406 -0.820141 -1.65202C39.6599 -37.061 127.097 -19 185.148 -19Z" fill="white"/>
</svg>
